<svg width="52" height="60" viewBox="0 0 52 60" fill="none" xmlns="http://www.w3.org/2000/svg">
<path fill-rule="evenodd" clip-rule="evenodd" d="M20.5 27.5C19.7095 26.5987 18.7095 25.9321 17.5 25.5C15.9255 23.4525 14.9255 21.1192 14.5 18.5C14.5 17.8333 14.5 17.1667 14.5 16.5C14.5 15.5 14.5 14.5 14.5 13.5C21.8333 13.5 29.1667 13.5 36.5 13.5C36.6056 16.1085 37.7723 18.1085 40 19.5C40.0967 26.9043 36.5967 29.571 29.5 27.5C28.8005 31.7978 28.4672 36.1311 28.5 40.5C30.5824 40.472 32.4157 41.1387 34 42.5C34.4974 45.146 34.6641 47.8127 34.5 50.5C28.5 50.5 22.5 50.5 16.5 50.5C16.3359 47.8127 16.5026 45.146 17 42.5C18.4443 40.8446 20.2776 40.178 22.5 40.5C22.5621 35.9242 21.8955 31.5909 20.5 27.5Z" fill="#84A98C"/>
<path fill-rule="evenodd" clip-rule="evenodd" d="M14.5 18.5C14.9255 21.1192 15.9255 23.4525 17.5 25.5C13.1712 26.3027 11.6712 24.3027 13 19.5C13.3826 18.944 13.8826 18.6107 14.5 18.5Z" fill="#2D3047"/>
<path fill-rule="evenodd" clip-rule="evenodd" d="M36.5 18.5C38.4411 20.0106 38.9411 22.0106 38 24.5C36.7592 26.4206 35.2592 26.754 33.5 25.5C35.0818 23.4229 36.0818 21.0896 36.5 18.5Z" fill="#2D3047"/>
<path fill-rule="evenodd" clip-rule="evenodd" d="M14.5 16.5C14.5 17.1667 14.5 17.8333 14.5 18.5C13.8826 18.6107 13.3826 18.944 13 19.5C11.6712 24.3027 13.1712 26.3027 17.5 25.5C18.7095 25.9321 19.7095 26.5987 20.5 27.5C13.9014 29.0753 10.7347 26.4087 11 19.5C11.7202 17.9443 12.8868 16.9443 14.5 16.5Z" fill="#84A98C"/>
</svg>
